# xmcd CD database file
#
# Track frame offsets:
#	150
#	17327
#	43148
#	66034
#	87198
#	108693
#	131291
#	156803
#
# Disc length: 2390 seconds
#
# Revision: 0
# Processed by: cddbd v1.5.2PL0 Copyright (c) Steve Scherf et al.
# Submitted via: CDex 1.70beta2
#
DISCID=5d095408
DTITLE=大橋トリオ - FAKE BOOK
DYEAR=2010
DGENRE=Jazz
TTITLE0=Dancing In The Moonlight
TTITLE1=traveling
TTITLE2=贈る言葉
TTITLE3=HUMAN NATURE
TTITLE4=I'm Yours
TTITLE5=Grapefruit Moon
TTITLE6=Dreams
TTITLE7=突然の贈り物
EXTD=YEAR: 2010
EXTT0=
EXTT1=
EXTT2=
EXTT3=
EXTT4=
EXTT5=
EXTT6=
EXTT7=
PLAYORDER=
